#!OML:ASF X:\für Bonn\!DataBase\2005_08_12_Daniel\c3d\Daniel.ASF
:FULLY-SPECIFIED
:DEGREES
98
root -3.66254 5.85126 -1.16228 -357.481 -87.9138 321.907
lowerback 58.5174 -3.73172 3.7377
upperback 5.57229 -4.41312 -1.78941
thorax -15.6156 -2.74894 -1.25139
lowerneck 10.7237 2.54349 -1.22515
upperneck -5.27277 3.0195 -2.34514
head -3.60812 1.62399 -0.754177
rclavicle -2.5842e-015 -2.90226e-014
rhumerus 67.7614 -0.799896 -113.66
rradius 4.76686
rwrist 78.9328
rhand -21.2261 8.75486
rfingers 7.12502
rthumb 5.15599 -21.1624
lclavicle -2.5842e-015 -2.90226e-014
lhumerus 62.0798 4.41645 97.6101
lradius 10.8988
lwrist -69.2336
lhand -20.056 0.0471561
lfingers 7.12502
lthumb 6.28576 29.9339
rfemur 169.785 47.0407 34.3026
rtibia 199.357
rfoot 246.219 100.794
rtoes -11.1728
lfemur -717.728 245.403 -238.052
ltibia 201.759
lfoot 87.1593 -93.0283
ltoes 9.07643
99
root -3.64836 5.87497 -1.16392 -357.459 -87.8739 322.056
lowerback 58.5286 -3.75803 3.77533
upperback 5.58849 -4.41642 -1.7645
thorax -15.5945 -2.75262 -1.23825
lowerneck 10.7876 2.56092 -1.29884
upperneck -5.35938 3.02539 -2.38475
head -3.6519 1.63142 -0.757311
rclavicle -2.5842e-015 -2.40529e-014
rhumerus 67.4179 -0.79806 -113.36
rradius 4.77192
rwrist 78.6363
rhand -21.3587 8.80632
rfingers 7.12502
rthumb 5.02796 -21.114
lclavicle -2.5842e-015 -2.40529e-014
lhumerus 61.767 4.58379 97.8535
lradius 10.9082
lwrist -69.7362
lhand -20.2884 -0.0294043
lfingers 7.12502
lthumb 6.06142 29.8639
rfemur 169.039 47.0227 34.1948
rtibia 199.363
rfoot 250.265 101.13
rtoes -11.5433
lfemur -718.123 245.645 -238.274
ltibia 201.791
lfoot 71.3912 -92.258
ltoes 8.72755
100
root -3.63265 5.92107 -1.1652 -357.093 -87.8536 321.887
lowerback 58.5647 -3.78331 3.82657
upperback 5.58832 -4.40954 -1.74809
thorax -15.5954 -2.75186 -1.24507
lowerneck 10.8296 2.58731 -1.38209
upperneck -5.42796 3.04452 -2.40177
head -3.68546 1.64437 -0.751426
rclavicle -2.03754e-014 7.7526e-015
rhumerus 67.0564 -0.844325 -113.048
rradius 4.8345
rwrist 78.5093
rhand -21.4206 8.89992
rfingers 7.12502
rthumb 4.96825 -21.0218
lclavicle -2.03754e-014 7.7526e-015
lhumerus 61.4502 4.82325 98.2404
lradius 10.936
lwrist -70.7658
lhand -20.2979 -0.0947196
lfingers 7.12502
lthumb 6.05223 29.7988
rfemur 12.0664 -46.9972 -145.685
rtibia 160.478
rfoot 255.888 78.2457
rtoes -11.9732
lfemur -541.394 114.181 -58.8779
ltibia 158.03
lfoot 33.0916 -88.1974
ltoes 8.1729
101
root -3.61469 5.98656 -1.16669 -357.065 -87.8257 322.102
lowerback 58.6205 -3.82242 3.87329
upperback 5.55467 -4.41951 -1.74727
thorax -15.6404 -2.75561 -1.25784
lowerneck 10.8871 2.61225 -1.45135
upperneck -5.5264 3.06309 -2.41508
head -3.73257 1.65707 -0.747564
rclavicle -2.48978e-014 1.53064e-014
rhumerus 66.6516 -0.8962 -112.758
rradius 4.96284
rwrist 78.5217
rhand -21.4073 8.95246
rfingers 7.12502
rthumb 4.98106 -20.969
lclavicle -2.48978e-014 1.53064e-014
lhumerus 61.1892 5.13343 98.7067
lradius 10.8945
lwrist -72.1243
lhand -20.1111 -0.126335
lfingers 7.12502
lthumb 6.23252 29.762
rfemur 13.4873 -47.0016 -145.408
rtibia 160.184
rfoot 262.064 77.374
rtoes -12.4248
lfemur -540.92 114.021 -59.9009
ltibia 157.726
lfoot -7.52979 -87.4915
ltoes 7.5557
102
root -3.59486 6.06887 -1.16834 -356.8 -87.8072 322.115
lowerback 58.6633 -3.84236 3.91051
upperback 5.54563 -4.41186 -1.72344
thorax -15.6514 -2.75351 -1.25004
lowerneck 10.8769 2.63373 -1.57352
upperneck -5.62622 3.07131 -2.42346
head -3.76795 1.6654 -0.730738
rclavicle -1.2921e-015 1.0138e-014
rhumerus 66.3807 -0.908914 -112.447
rradius 4.9998
rwrist 78.6274
rhand -21.4091 8.97098
rfingers 7.12502
rthumb 4.97932 -20.9505
lclavicle -1.2921e-015 1.0138e-014
lhumerus 61.0349 5.51177 99.3682
lradius 10.8427
lwrist -73.747
lhand -19.7646 -0.205348
lfingers 7.12502
lthumb 6.56707 29.6728
rfemur 15.1421 -47.0574 -144.974
rtibia 159.77
rfoot 268.137 76.2503
rtoes -12.8378
lfemur -540.511 113.865 -61.3039
ltibia 157.326
lfoot -28.0245 -85.8892
ltoes 6.87008
